{"title":"Red.Dragon.2002.BRRip.480p.x264.AAC-VYTO [P2PDL]","uid":12222697,"size":477018015,"categoryP":"video","categoryS":"movies","magnet":"?xt=urn:btih:3d82bf2b1314bc18c2c1ec880b31a9d0443686c6&amp;dn=Red.Dragon.2002.BRRip.480p.x264.AAC-VYTO+%5BP2PDL%5D&amp;tr=udp%3A%2F%2Ftracker.openbittorrent.com%3A80&amp;tr=udp%3A%2F%2Fopen.demonii.com%3A1337&amp;tr=udp%3A%2F%2Ftracker.coppersurfer.tk%3A6969&amp;tr=udp%3A%2F%2Fexodus.desync.com%3A6969","seeders":2,"leechers":2,"uploader":"ValidusVyto","files":7,"time":1439392333,"description":"____    ____ ____    ____ .___________.  ______   \n     /   /      /   / |           | /  __    \n    /   /      /   /  `---|  |----`|  |  |  | \n        /     _    _/       |  |     |  |  |  | \n       /        |  |         |  |     |  `--'  | \n    __/         |__|         |__|      ______/  \n                                                  \nPresenting Small Encodes with quality for years!\n                                                                                                   \n                                                                                                   \n\nRed.Dragon.2002.BRRip.480p.x264.AAC-VYTO\n\n\nGenre: Crime, Thriller &lt;a href=&quot;\nhttp://www.imdb.com/title/tt0289765/&quot; rel=&quot;nofollow&quot; target=&quot;_NEW&quot;&gt;\nhttp://www.imdb.com/title/tt0289765/&lt;/a&gt;\n\n\nGeneral\nFormat                         : MPEG-4\nFile size                      : 447 MiB\nDuration                       : 2h 4mn\nOverall bit rate               : 502 Kbps\n\nVideo\nFormat                         : AVC\nBit rate                       : 467 Kbps\nWidth                          : 720 pixels\nHeight                         : 304 pixels\nDisplay aspect ratio           : 2.35:1\nFrame rate mode                : Constant\nFrame rate                     : 23.976 fps\nBit depth                      : 8 bits\nStream size                    : 416 MiB (93%)\nWriting library                : x264 core 148 r2579\n\nAudio\nFormat                         : AAC\nBit rate mode                  : Variable\nBit rate                       : 32.0 Kbps\nChannel(s)                     : 2 channels\nChannel positions              : Front: L R\nSampling rate                  : 48.0 KHz\nStream size                    : 28.5 MiB (6%)\n\nSubtitle                       : Yes\nSource                     \t   : 720p.BluRay.x264.DTS-WiKi\t\t\n\nScreenshots:\n &lt;a href=&quot;\nhttp://ititli.com/Ge&quot; rel=&quot;nofollow&quot; target=&quot;_NEW&quot;&gt;\nhttp://ititli.com/Ge&lt;/a&gt; &lt;a href=&quot;\nhttp://ititli.com/Gj&quot; rel=&quot;nofollow&quot; target=&quot;_NEW&quot;&gt;\nhttp://ititli.com/Gj&lt;/a&gt; &lt;a href=&quot;\nhttp://ititli.com/Gk&quot; rel=&quot;nofollow&quot; target=&quot;_NEW&quot;&gt;\nhttp://ititli.com/Gk&lt;/a&gt; &lt;a href=&quot;\nhttp://ititli.com/Go&quot; rel=&quot;nofollow&quot; target=&quot;_NEW&quot;&gt;\nhttp://ititli.com/Go&lt;/a&gt; &lt;a href=&quot;\nhttp://ititli.com/GG&quot; rel=&quot;nofollow&quot; target=&quot;_NEW&quot;&gt;\nhttp://ititli.com/GG&lt;/a&gt; &lt;a href=&quot;\nhttp://ititli.com/GH&quot; rel=&quot;nofollow&quot; target=&quot;_NEW&quot;&gt;\nhttp://ititli.com/GH&lt;/a&gt; &lt;a href=&quot;\nhttp://ititli.com/GM&quot; rel=&quot;nofollow&quot; target=&quot;_NEW&quot;&gt;\nhttp://ititli.com/GM&lt;/a&gt; &lt;a href=&quot;\nhttp://ititli.com/GU&quot; rel=&quot;nofollow&quot; target=&quot;_NEW&quot;&gt;\nhttp://ititli.com/GU&lt;/a&gt; &lt;a href=&quot;\nhttp://ititli.com/Gh&quot; rel=&quot;nofollow&quot; target=&quot;_NEW&quot;&gt;\nhttp://ititli.com/Gh&lt;/a&gt; &lt;a href=&quot;\nhttp://ititli.com/Gs&quot; rel=&quot;nofollow&quot; target=&quot;_NEW&quot;&gt;\nhttp://ititli.com/Gs&lt;/a&gt; &lt;a href=&quot;\nhttp://ititli.com/GY&quot; rel=&quot;nofollow&quot; target=&quot;_NEW&quot;&gt;\nhttp://ititli.com/GY&lt;/a&gt; &lt;a href=&quot;\nhttp://ititli.com/G4&quot; rel=&quot;nofollow&quot; target=&quot;_NEW&quot;&gt;\nhttp://ititli.com/G4&lt;/a&gt;\n\n----------------------------------------------------------------------------------------------------\n\n\nEncoder Notes: Looking For Early Access To Anything You Can Provide DVDScr, R5, DVDR, BluRay, Direct\nAudio, Music Releases and Seedboxes. If You Got anything to offer please contact us.\n\nSupport us by donating BC - 1FgwdzPsd1y25Gea8wP1qni35uGCtmkRCD","torrent":{"xt":"urn:btih:3d82bf2b1314bc18c2c1ec880b31a9d0443686c6","amp;dn":"Red.Dragon.2002.BRRip.480p.x264.AAC-VYTO+%5BP2PDL%5D","amp;tr":["udp%3A%2F%2Ftracker.openbittorrent.com%3A80","udp%3A%2F%2Fopen.demonii.com%3A1337","udp%3A%2F%2Ftracker.coppersurfer.tk%3A6969","udp%3A%2F%2Fexodus.desync.com%3A6969"],"infoHash":"3d82bf2b1314bc18c2c1ec880b31a9d0443686c6","infoHashBuffer":{"type":"Buffer","data":[61,130,191,43,19,20,188,24,194,193,236,136,11,49,169,208,68,54,134,198]},"announce":[],"urlList":[]}}